<svg width="400" height="408" viewBox="0 0 400 408" fill="none" xmlns="http://www.w3.org/2000/svg">
<rect width="400" height="408"/>
<circle cx="200" cy="208" r="200" fill="black"/>
<path d="M374.711 262.954C374.822 262.954 375.015 262.954 375.292 262.954C376.122 263.065 376.924 263.231 377.699 263.452C378.529 263.729 379.249 264.227 379.857 264.946C380.079 265.168 380.245 265.472 380.355 265.859C380.521 266.247 380.521 266.606 380.355 266.938C380.245 267.326 380.023 267.658 379.691 267.935C379.415 268.267 379.166 268.433 378.944 268.433C377.45 268.654 375.928 268.654 374.379 268.433C337.247 260.741 296.075 255.76 250.863 253.491C205.707 251.278 164.037 252.108 125.854 255.981C124.138 256.092 122.478 256.286 120.873 256.562C119.434 256.673 118.051 256.784 116.723 256.895C112.462 257.503 108.809 259.385 105.766 262.539C98.9036 270.01 91.3499 276.595 83.1045 282.295C76.6299 286.667 69.4912 289.102 61.6885 289.6C58.5342 289.821 55.4906 289.323 52.5576 288.105C49.7907 286.888 47.9922 285.062 47.1621 282.627C46.3874 280.192 46.7471 277.591 48.2412 274.824C50.6761 270.895 54.6882 267.52 60.2773 264.697C65.8665 261.93 71.8154 259.661 78.124 257.891C84.488 256.12 89.8558 254.819 94.2275 253.989C100.093 252.882 104.853 250.033 108.505 245.439C126.158 223.968 143.119 199.674 159.389 172.559C175.714 145.387 190.738 117.441 204.462 88.7207C218.241 60 230.084 32.4967 239.989 6.21094C240.321 4.82747 240.875 3.6377 241.649 2.6416C242.479 1.59017 243.669 0.870768 245.219 0.483398C246.713 0.262044 247.986 0.566406 249.037 1.39648C250.144 2.17122 250.587 3.27799 250.365 4.7168C249.867 8.14779 249.009 11.4958 247.792 14.7607C238.329 39.7184 227.095 65.7275 214.091 92.7881C201.142 119.793 187.03 146.134 171.757 171.812C156.483 197.489 140.74 220.731 124.525 241.538C121.15 245.799 120.126 248.262 121.454 248.926C122.782 249.645 125.383 249.618 129.257 248.843C130.142 248.732 131 248.621 131.83 248.511C162.266 245.08 193.837 244.028 226.542 245.356C259.247 246.74 291.482 249.618 323.246 253.989C334.424 255.594 345.382 257.42 356.117 259.468C362.426 260.685 368.624 261.847 374.711 262.954ZM66.2539 281.714C75.5508 277.951 83.2428 272.002 89.3301 263.867C79.3138 264.587 70.4043 267.686 62.6016 273.164C60.1667 274.99 58.7279 276.761 58.2852 278.477C57.8978 280.192 58.3958 281.437 59.7793 282.212C61.2181 282.987 63.3763 282.821 66.2539 281.714Z" fill="white"/>
</svg>
